#define close_width 16
#define close_height 16
static unsigned char close_bits[] = {
   0x00, 0x00, 0xc0, 0x03, 0xf0, 0x0f, 0xf8, 0x1f, 0xfc, 0x3f, 0xfc, 0x3f,
   0xbe, 0x7c, 0x7e, 0x7c, 0x7e, 0x7e, 0x3e, 0x7d, 0xfc, 0x3f, 0xfc, 0x3f,
   0xf8, 0x1f, 0xf0, 0x0f, 0xc0, 0x03, 0x00, 0x00 };
